<?xml version="1.0" standalone="no"?>
<!DOCTYPE svg PUBLIC "-//W3C//DTD SVG 20010904//EN"
 "http://www.w3.org/TR/2001/REC-SVG-20010904/DTD/svg10.dtd">
<svg version="1.0" xmlns="http://www.w3.org/2000/svg"
 width="256.000000pt" height="256.000000pt" viewBox="0 0 256.000000 256.000000"
 preserveAspectRatio="xMidYMid meet">

<g transform="translate(0.000000,256.000000) scale(0.100000,-0.100000)"
fill="#000000" stroke="none">
<path d="M1188 2403 l-58 -4 0 -659 0 -660 629 0 629 0 6 38 c22 153 13 304
-28 457 -102 381 -412 690 -791 791 -91 24 -244 45 -300 42 -16 -1 -56 -3 -87
-5z"/>
<path d="M537 2125 c-280 -237 -425 -633 -371 -1007 l6 -38 219 0 219 0 0 550
c0 303 -2 550 -4 550 -3 0 -34 -25 -69 -55z"/>
<path d="M255 814 c57 -129 169 -281 271 -370 33 -28 65 -54 72 -58 9 -6 12
45 12 238 l0 246 -190 0 -190 0 25 -56z"/>
<path d="M1130 516 l0 -353 83 -6 c152 -12 343 20 496 82 255 104 486 326 595
574 l26 57 -600 0 -600 0 0 -354z"/>
</g>
</svg>
